HIERARCHY
ROOT Hips
{
	OFFSET 0.00000 0.00000 0.00000
	CHANNELS 6 Xposition Yposition Zposition Zrotation Yrotation Xrotation 
	JOINT LHipJoint
	{
		OFFSET 0 0 0
		CHANNELS 3 Zrotation Yrotation Xrotation
		JOINT LeftUpLeg
		{
			OFFSET 1.62329 -1.80800 0.67318
			CHANNELS 3 Zrotation Yrotation Xrotation
			JOINT LeftLeg
			{
				OFFSET 2.57139 -7.06484 0.00000
				CHANNELS 3 Zrotation Yrotation Xrotation
				JOINT LeftFoot
				{
					OFFSET 2.52017 -6.92413 0.00000
					CHANNELS 3 Zrotation Yrotation Xrotation
					JOINT LeftToeBase
					{
						OFFSET 0.23295 -0.64001 2.10214
						CHANNELS 3 Zrotation Yrotation Xrotation
						End Site
						{
							OFFSET 0.00000 -0.00000 1.10139
						}
					}
				}
			}
		}
	}
	JOINT RHipJoint
	{
		OFFSET 0 0 0
		CHANNELS 3 Zrotation Yrotation Xrotation
		JOINT RightUpLeg
		{
			OFFSET -1.48061 -1.80800 0.67318
			CHANNELS 3 Zrotation Yrotation Xrotation
			JOINT RightLeg
			{
				OFFSET -2.63258 -7.23296 0.00000
				CHANNELS 3 Zrotation Yrotation Xrotation
				JOINT RightFoot
				{
					OFFSET -2.54779 -7.00000 0.00000
					CHANNELS 3 Zrotation Yrotation Xrotation
					JOINT RightToeBase
					{
						OFFSET -0.23067 -0.63376 2.12161
						CHANNELS 3 Zrotation Yrotation Xrotation
						End Site
						{
							OFFSET -0.00000 -0.00000 1.11000
						}
					}
				}
			}
		}
	}
	JOINT LowerBack
	{
		OFFSET 0 0 0
		CHANNELS 3 Zrotation Yrotation Xrotation
		JOINT Spine
		{
			OFFSET -0.02108 2.07573 -0.16981
			CHANNELS 3 Zrotation Yrotation Xrotation
			JOINT Spine1
			{
				OFFSET 0.05070 2.08439 -0.03141
				CHANNELS 3 Zrotation Yrotation Xrotation
				JOINT Neck
				{
					OFFSET 0 0 0
					CHANNELS 3 Zrotation Yrotation Xrotation
					JOINT Neck1
					{
						OFFSET -0.10731 1.60408 0.31370
						CHANNELS 3 Zrotation Yrotation Xrotation
						JOINT Head
						{
							OFFSET 0.08411 1.65679 -0.30822
							CHANNELS 3 Zrotation Yrotation Xrotation
							End Site
							{
								OFFSET 0.03911 1.69149 -0.14146
							}
						}
					}
				}
				JOINT LeftShoulder
				{
					OFFSET 0 0 0
					CHANNELS 3 Zrotation Yrotation Xrotation
					JOINT LeftArm
					{
						OFFSET 3.52315 0.73219 -0.54694
						CHANNELS 3 Zrotation Yrotation Xrotation
						JOINT LeftForeArm
						{
							OFFSET 5.32462 -0.00000 -0.00000
							CHANNELS 3 Zrotation Yrotation Xrotation
							JOINT LeftHand
							{
								OFFSET 3.48402 -0.00000 -0.00000
								CHANNELS 3 Zrotation Yrotation Xrotation
								JOINT LeftFingerBase
								{
									OFFSET 0 0 0
									CHANNELS 3 Zrotation Yrotation Xrotation
									JOINT LeftHandIndex1
									{
										OFFSET 0.57248 -0.00000 -0.00000
										CHANNELS 3 Zrotation Yrotation Xrotation
										End Site
										{
											OFFSET 0.46154 -0.00000 -0.00000
										}
									}
								}
								JOINT LThumb
								{
									OFFSET 0 0 0
									CHANNELS 3 Zrotation Yrotation Xrotation
									End Site
									{
										OFFSET 0.46859 -0.00000 0.46859
									}
								}
							}
						}
					}
				}
				JOINT RightShoulder
				{
					OFFSET 0 0 0
					CHANNELS 3 Zrotation Yrotation Xrotation
					JOINT RightArm
					{
						OFFSET -3.41766 0.93592 -0.10019
						CHANNELS 3 Zrotation Yrotation Xrotation
						JOINT RightForeArm
						{
							OFFSET -5.33589 -0.00000 -0.00000
							CHANNELS 3 Zrotation Yrotation Xrotation
							JOINT RightHand
							{
								OFFSET -3.64134 -0.00000 -0.00000
								CHANNELS 3 Zrotation Yrotation Xrotation
								JOINT RightFingerBase
								{
									OFFSET 0 0 0
									CHANNELS 3 Zrotation Yrotation Xrotation
									JOINT RightHandIndex1
									{
										OFFSET -0.73481 -0.00000 -0.00000
										CHANNELS 3 Zrotation Yrotation Xrotation
										End Site
										{
											OFFSET -0.59242 -0.00000 -0.00000
										}
									}
								}
								JOINT RThumb
								{
									OFFSET 0 0 0
									CHANNELS 3 Zrotation Yrotation Xrotation
									End Site
									{
										OFFSET -0.60147 -0.00000 0.60147
									}
								}
							}
						}
					}
				}
			}
		}
	}
}
MOTION
Frames: 6
Frame Time: .0083333
2.3290 18.2870 -5.4071 -0.3162 -28.0175 8.7938 0.0000 0.0000 0.0000 -2.8048 -8.2447 -23.0406 5.5018 13.9275 42.9479 -0.3644 -10.6316 4.2355 2.5668 -9.9584 -28.8421 0.0000 0.0000 0.0000 5.4390 6.6179 -27.0437 -5.0616 -13.4528 41.0882 0.0248 3.4675 -0.9257 -0.1360 2.3770 -6.5487 0.4936 1.7898 13.6514 1.2077 2.4939 1.6244 0.5327 1.2111 -5.9698 -6.6452 3.7698 -23.1163 -3.0469 8.1210 18.1028 1.1783 2.9151 9.4147 -0.0000 -0.0000 0.0000 -83.7119 -17.2001 28.9585 144.0708 -45.4643 -104.5280 -0.0000 -0.0000 4.5940 16.9311 9.1929 2.7843 -7.1250 0.0000 -0.0000 -8.7076 39.4376 1.2042 -0.0000 -0.0000 0.0000 78.5282 2.6290 47.7931 -140.4215 47.8182 -101.8737 0.0000 0.0000 10.9378 -18.9663 16.8125 -5.6767 7.1250 -0.0000 -0.0000 5.8881 -12.3314 4.5192
2.2058 18.2606 -5.4533 -0.3495 -27.3240 8.5596 0.0000 0.0000 0.0000 -3.2578 -8.0031 -23.3103 5.2759 13.6879 42.0013 -0.5115 -12.5536 4.4214 2.5705 -9.9650 -28.8633 0.0000 0.0000 0.0000 5.3557 6.4071 -26.4931 -5.5005 -13.9261 42.9424 0.0124 3.3767 -1.6869 -0.1332 2.3524 -6.4805 0.5485 1.6777 13.7211 1.2838 2.3616 1.5603 0.6033 1.1459 -6.0764 -6.6471 3.6551 -22.9021 -2.7611 7.8931 18.3010 1.2435 2.8384 9.4355 0.0000 0.0000 0.0000 -83.5598 -17.4765 29.3055 143.9925 -45.5183 -104.4721 -0.0000 -0.0000 4.8274 17.8216 8.8662 2.8366 -7.1250 0.0000 -0.0000 -7.8886 39.1691 1.1417 0.0000 0.0000 0.0000 78.8052 2.5635 47.3028 -140.1579 47.9761 -101.6782 0.0000 0.0000 10.7231 -19.1954 16.7215 -5.7202 7.1250 -0.0000 -0.0000 5.7315 -12.3997 4.3897
2.0853 18.2217 -5.4902 -0.4432 -26.7083 8.3467 0.0000 0.0000 0.0000 -3.7153 -7.7424 -23.4205 5.0249 13.4118 40.9303 -0.6723 -14.3536 4.7273 2.5323 -9.8965 -28.6421 0.0000 0.0000 0.0000 5.2869 6.2301 -25.8467 -5.9059 -14.3366 44.6031 -0.0014 3.1848 -2.3008 -0.1709 2.6634 -7.3429 0.6759 1.5919 13.6935 1.3700 2.2745 1.5061 0.6386 1.1015 -6.1164 -6.5323 3.5706 -22.7446 -2.5520 7.6937 18.5438 1.2707 2.7707 9.4901 -0.0000 0.0000 0.0000 -83.5058 -17.8193 29.7674 143.8650 -45.6058 -104.3811 -0.0000 -0.0000 5.3284 18.1719 8.7358 2.8540 -7.1250 0.0000 -0.0000 -7.5674 39.0604 1.1149 -0.0000 0.0000 0.0000 79.1958 2.3765 46.7993 -139.9454 48.1022 -101.5201 0.0000 0.0000 9.9602 -19.6115 16.8286 -5.8896 7.1250 -0.0000 -0.0000 5.4599 -12.2395 4.1979
1.9639 18.1709 -5.5215 -0.6419 -26.1441 8.1642 0.0000 0.0000 0.0000 -4.0433 -7.5641 -23.3996 4.7770 13.1282 39.8503 -0.8481 -16.0645 5.2723 2.3838 -9.6235 -27.7659 0.0000 0.0000 0.0000 5.3349 6.1564 -25.0477 -6.2576 -14.6734 46.0068 -0.0195 2.6959 -2.9160 -0.2132 2.9728 -8.2031 0.8453 1.5193 13.4635 1.5291 2.2101 1.5320 0.7289 1.0689 -5.9609 -6.8978 3.3346 -22.6666 -2.0557 7.3848 18.8112 1.4589 2.6503 9.5400 -0.0000 0.0000 0.0000 -83.6093 -18.1625 30.2481 143.7647 -45.6743 -104.3094 -0.0000 -0.0000 6.1558 17.1611 9.5872 2.9442 -7.1250 0.0000 -0.0000 -8.5782 39.8623 1.0956 -0.0000 0.0000 0.0000 79.6144 2.1335 46.4283 -139.6111 48.2986 -101.2709 0.0000 0.0000 8.4443 -20.7082 17.4236 -6.4581 7.1250 -0.0000 -0.0000 4.7661 -11.4821 3.7352
1.8430 18.1071 -5.5551 -0.7827 -25.3442 7.9043 0.0000 0.0000 0.0000 -4.3676 -7.5772 -23.3346 4.5552 12.8647 38.8640 -1.0427 -17.7345 6.0261 2.2688 -9.4048 -27.0701 0.0000 0.0000 0.0000 5.4426 5.8459 -24.1131 -6.5436 -14.9352 47.1262 -0.0403 1.5814 -3.5746 -0.2661 3.3185 -9.1668 0.9592 1.3763 13.4727 1.7307 2.0541 1.4364 0.9045 0.9922 -6.0697 -7.5975 2.9706 -22.5030 -1.3586 6.9567 19.1570 1.7531 2.4720 9.5896 -0.0000 0.0000 0.0000 -83.8826 -18.1731 30.8952 143.5470 -45.8222 -104.1535 -0.0000 -0.0000 8.2025 17.1007 10.2512 3.1339 -7.1250 0.0000 -0.0000 -8.7500 40.5409 0.9705 -0.0000 0.0000 0.0000 79.8693 1.7103 46.0679 -139.3687 48.4395 -101.0897 0.0000 0.0000 6.9572 -21.5141 17.8686 -6.8966 7.1250 -0.0000 -0.0000 4.2638 -10.9084 3.3895
1.7244 18.0306 -5.5879 -1.0331 -24.3590 7.7008 0.0000 0.0000 0.0000 -4.5449 -7.6747 -23.3662 4.3924 12.6651 38.1274 -1.2074 -19.0083 7.0833 2.1228 -9.1173 -26.1630 0.0000 0.0000 0.0000 5.7386 5.2341 -23.1211 -6.7485 -15.1164 47.9168 -0.0555 0.0314 -4.4385 -0.2512 3.2249 -8.9055 1.2946 1.1610 13.3521 1.9067 1.8270 1.4498 0.9451 0.8755 -5.9814 -7.9170 2.7219 -22.3134 -0.9309 6.6019 19.2053 1.8992 2.3372 9.5558 0.0000 -0.0000 0.0000 -84.1715 -18.5791 31.3103 143.8486 -45.6170 -104.3694 -0.0000 -0.0000 7.5761 16.7275 10.0677 3.0074 -7.1250 0.0000 -0.0000 -9.0399 40.3204 1.0528 0.0000 -0.0000 0.0000 80.0780 1.6667 45.4893 -139.3244 48.4651 -101.0566 0.0000 0.0000 5.9920 -21.3899 17.8673 -6.8528 7.1250 -0.0000 -0.0000 4.3453 -10.9263 3.4531
